<?xml version="1.0" encoding="utf-8"?>
<!-- Svg Vector Icons : http://www.onlinewebfonts.com/icon -->
<!DOCTYPE svg PUBLIC "-//W3C//DTD SVG 1.1//EN" "http://www.w3.org/Graphics/SVG/1.1/DTD/svg11.dtd">
<svg version="1.1" xmlns="http://www.w3.org/2000/svg" xmlns:xlink="http://www.w3.org/1999/xlink" x="0px" y="0px" viewBox="0 0 1000 1000" enable-background="new 0 0 1000 1000" xml:space="preserve">
<metadata> Svg Vector Icons : http://www.onlinewebfonts.com/icon </metadata>
<g><path d="M10,10L10,10L10,10z"/><path d="M810.9,536.9c0,151.3-122.7,274-274,274c-151.3,0-274-122.7-274-274c0-18,1.8-35.6,5.2-52.7H83.8v364.2c0,78.2,63.3,141.6,141.6,141.6h623c78.2,0,141.6-63.4,141.6-141.6V484.2H805.8C809.1,501.3,810.9,518.9,810.9,536.9L810.9,536.9z M848.4,83.8h-623c-78.2,0-141.6,63.4-141.6,141.6v153.4h229.4c49.6-70.1,131.3-115.9,223.7-115.9c92.4,0,174.1,45.8,223.7,115.9H990V225.4C990,147.2,926.6,83.8,848.4,83.8L848.4,83.8z M917.7,258.7c0,14-11.4,25.3-25.3,25.3h-75.8c-13.9,0-25.3-11.4-25.3-25.3v-75.9c0-14,11.4-25.3,25.3-25.3h75.8c14,0,25.3,11.4,25.3,25.3V258.7z M705.5,536.9c0-93.2-75.5-168.6-168.6-168.6c-93.1,0-168.6,75.4-168.6,168.6c0,93.2,75.5,168.6,168.6,168.6C630,705.5,705.5,630,705.5,536.9L705.5,536.9z"/></g>
</svg>